<svg width="24" height="24" viewBox="0 0 24 24" fill="none" xmlns="http://www.w3.org/2000/svg">
<g clip-path="url(#clip0_181_31)">
<path d="M11.8642 4.00101C7.68022 4.07001 4.15522 7.52701 4.00622 11.706C3.91822 14.134 4.92022 16.439 6.75622 18.032C7.54722 18.719 8.00022 19.775 8.00022 21C8.00022 22.654 9.34622 24 11.0002 24H13.0002C14.6542 24 16.0002 22.654 16.0002 21V20.625C16.0002 19.659 16.4552 18.727 17.2822 17.999C19.0102 16.481 20.0002 14.295 20.0002 12C20.0002 9.83901 19.1512 7.81301 17.6102 6.29701C16.0692 4.78101 14.0272 3.95201 11.8642 4.00101ZM14.0002 21C14.0002 21.552 13.5522 22 13.0002 22H11.0002C10.4482 22 10.0002 21.552 10.0002 20.931C10.0002 20.615 9.96922 20.305 9.92322 20H14.0412C14.0162 20.206 14.0002 20.415 14.0002 20.625V21ZM15.9622 16.497C15.4512 16.946 15.0392 17.454 14.7222 18H13.0002V13.816C14.1612 13.402 15.0002 12.302 15.0002 11C15.0002 10.447 14.5532 10 14.0002 10C13.4472 10 13.0002 10.447 13.0002 11C13.0002 11.553 12.5522 12 12.0002 12C11.4482 12 11.0002 11.552 11.0002 11C11.0002 10.448 10.5532 10 10.0002 10C9.44722 10 9.00022 10.447 9.00022 11C9.00022 12.302 9.83922 13.402 11.0002 13.816V18H9.25422C8.94422 17.442 8.54722 16.94 8.06622 16.522C6.69022 15.327 5.93822 13.598 6.00422 11.778C6.11622 8.64401 8.76022 6.05201 11.8982 6.00101C11.9322 6.00101 11.9652 6.00101 12.0002 6.00101C13.5862 6.00101 15.0772 6.61001 16.2082 7.72401C17.3642 8.86101 18.0012 10.38 18.0012 12.001C18.0012 13.721 17.2582 15.359 15.9632 16.498L15.9622 16.497ZM16.7852 2.47401L18.0202 0.464008C18.3082 -0.00799206 18.9242 -0.154992 19.3952 0.136008C19.8662 0.425008 20.0132 1.04001 19.7232 1.51101L18.4882 3.52101C18.3002 3.82901 17.9712 3.99801 17.6352 3.99801C17.4562 3.99801 17.2762 3.95001 17.1132 3.85001C16.6422 3.56101 16.4952 2.94501 16.7852 2.47401ZM23.4132 6.62201L21.4802 7.49401C21.3472 7.55501 21.2072 7.58301 21.0702 7.58301C20.6882 7.58301 20.3252 7.36401 20.1582 6.99401C19.9302 6.49101 20.1542 5.89801 20.6582 5.67201L22.5912 4.80001C23.0972 4.57101 23.6872 4.79701 23.9132 5.30001C24.1412 5.80301 23.9172 6.39601 23.4132 6.62201ZM4.19422 1.51001C3.90522 1.03901 4.05322 0.423008 4.52422 0.135008C4.99722 -0.152992 5.61122 -0.00499204 5.89922 0.465008L7.13122 2.47601C7.42022 2.94701 7.27222 3.56301 6.80122 3.85101C6.63822 3.95101 6.45722 3.99801 6.28022 3.99801C5.94322 3.99801 5.61522 3.82801 5.42622 3.52001L4.19422 1.50901V1.51001ZM3.71122 7.06101C3.54022 7.42001 3.18222 7.62901 2.80922 7.62901C2.66422 7.62901 2.51722 7.59801 2.37822 7.53001L0.580217 6.66901C0.082217 6.43101 -0.128783 5.83401 0.110217 5.33601C0.347217 4.83701 0.947217 4.62401 1.44322 4.86601L3.24122 5.72701C3.73922 5.96501 3.95022 6.56301 3.71122 7.06101Z" fill="#848484"/>
</g>
<defs>
<clipPath id="clip0_181_31">
<rect width="24" height="24" fill="white"/>
</clipPath>
</defs>
</svg>
