<svg width="24" height="24" viewBox="0 0 24 24" fill="none" xmlns="http://www.w3.org/2000/svg">
<g clip-path="url(#clip0_181_35)">
<path d="M20.9997 22.0001H8.99969C8.49669 22.0001 8.23769 21.6681 8.14869 21.5261C8.06069 21.3821 7.87969 21.0031 8.10469 20.5521L9.10969 18.5431C9.88669 18.8391 10.7237 18.9991 11.5897 18.9991H18.9987C19.8797 18.9991 20.7127 18.6141 21.2847 17.9421C21.8567 17.2701 22.1017 16.3811 21.9587 15.5021C21.7267 14.0751 20.4077 12.9991 18.8927 12.9991H11.6037C11.1537 12.9991 10.7577 12.6961 10.6397 12.2631L10.0217 9.99912H18.9997C19.5517 9.99912 19.9997 9.55212 19.9997 8.99912C19.9997 8.44612 19.5517 7.99912 18.9997 7.99912H9.47469L7.92569 2.33112C7.51969 0.784118 6.07569 -0.213882 4.56369 0.00811782C3.71969 0.132118 2.96569 0.611118 2.49669 1.32112C2.02769 2.03112 1.88169 2.91112 2.10069 3.74212L4.83369 13.8311C5.24869 15.3611 6.15769 16.6591 7.35969 17.5721L6.31669 19.6581C5.84869 20.5961 5.89769 21.6861 6.44869 22.5771C6.99969 23.4681 7.95269 24.0001 9.00069 24.0001H21.0007C21.5527 24.0001 22.0007 23.5531 22.0007 23.0001C22.0007 22.4471 21.5517 22.0001 20.9997 22.0001ZM4.03269 3.22712C3.95969 2.94912 4.00669 2.66412 4.16569 2.42412C4.32369 2.18412 4.61469 1.97812 4.97769 1.97812C5.42769 1.97812 5.85869 2.33512 5.99369 2.85012L8.70969 12.7911C9.06469 14.0921 10.2547 15.0001 11.6037 15.0001H18.8927C19.4297 15.0001 19.9097 15.3621 19.9857 15.8241C20.0347 16.1281 19.9557 16.4201 19.7617 16.6471C19.5717 16.8711 19.2937 17.0001 18.9997 17.0001H11.5907C9.33769 17.0001 7.35369 15.4811 6.76469 13.3081L4.03269 3.22712Z" fill="#848484"/>
</g>
<defs>
<clipPath id="clip0_181_35">
<rect width="24" height="24" fill="white"/>
</clipPath>
</defs>
</svg>
