<svg width="21" height="21" viewBox="0 0 21 21" fill="none" xmlns="http://www.w3.org/2000/svg">
<path d="M0.748881 3.57957L7.81425 10.6449L0.74888 17.7103C0.0307614 18.4284 0.0191787 19.6214 0.748881 20.3511C1.47858 21.0808 2.67159 21.0693 3.38971 20.3511L10.4551 13.2858L17.5204 20.3511C18.2386 21.0693 19.4316 21.0808 20.1613 20.3511C20.891 19.6214 20.8794 18.4284 20.1613 17.7103L13.0959 10.6449L20.1613 3.57957C20.8794 2.86145 20.891 1.66844 20.1613 0.93874C19.4316 0.209038 18.2386 0.22062 17.5204 0.93874L10.4551 8.00411L3.38971 0.93874C2.67159 0.220621 1.47858 0.209038 0.748882 0.93874C0.0191794 1.66844 0.0307619 2.86145 0.748881 3.57957Z" fill="#1C1C1E"/>
</svg>
