<svg
            width="19"
            height="11"
            viewBox="0 0 19 11"
            fill="none"
            xmlns="http://www.w3.org/2000/svg"
          >
            <path
              d="M6.625 9.75C6.625 9.55109 6.70073 9.36032 6.83552 9.21967C6.97031 9.07902 7.15313 9 7.34375 9H11.6562C11.8469 9 12.0297 9.07902 12.1645 9.21967C12.2993 9.36032 12.375 9.55109 12.375 9.75C12.375 9.94891 12.2993 10.1397 12.1645 10.2803C12.0297 10.421 11.8469 10.5 11.6562 10.5H7.34375C7.15313 10.5 6.97031 10.421 6.83552 10.2803C6.70073 10.1397 6.625 9.94891 6.625 9.75ZM3.75 5.25C3.75 5.05109 3.82573 4.86032 3.96052 4.71967C4.09531 4.57902 4.27813 4.5 4.46875 4.5H14.5312C14.7219 4.5 14.9047 4.57902 15.0395 4.71967C15.1743 4.86032 15.25 5.05109 15.25 5.25C15.25 5.44891 15.1743 5.63968 15.0395 5.78033C14.9047 5.92098 14.7219 6 14.5312 6H4.46875C4.27813 6 4.09531 5.92098 3.96052 5.78033C3.82573 5.63968 3.75 5.44891 3.75 5.25ZM0.875 0.75C0.875 0.551088 0.950725 0.360322 1.08552 0.21967C1.22031 0.0790178 1.40313 0 1.59375 0H17.4062C17.5969 0 17.7797 0.0790178 17.9145 0.21967C18.0493 0.360322 18.125 0.551088 18.125 0.75C18.125 0.948912 18.0493 1.13968 17.9145 1.28033C17.7797 1.42098 17.5969 1.5 17.4062 1.5H1.59375C1.40313 1.5 1.22031 1.42098 1.08552 1.28033C0.950725 1.13968 0.875 0.948912 0.875 0.75Z"
              fill="#F7F7F7"
            />
          </svg>