<svg width="21" height="24" viewBox="0 0 21 24" fill="none" xmlns="http://www.w3.org/2000/svg">
<path d="M10.9572 24.008L10.2601 23.4105C9.29916 22.6058 0.908203 15.3591 0.908203 10.0583C0.908203 4.50839 5.40731 0.00928116 10.9572 0.00928116C16.5071 0.00928116 21.0062 4.50839 21.0062 10.0583C21.0062 15.3592 12.6153 22.6059 11.6583 23.4145L10.9572 24.008ZM10.9572 2.18217C6.60942 2.18709 3.08606 5.71045 3.08114 10.0583C3.08114 13.3883 8.24358 18.7081 10.9572 21.1429C13.6709 18.7071 18.8333 13.3843 18.8333 10.0583C18.8284 5.71045 15.3051 2.18714 10.9572 2.18217Z" fill="#1E1E1E"/>
<path d="M10.958 14.0416C8.75802 14.0416 6.97461 12.2582 6.97461 10.0583C6.97461 7.85836 8.75802 6.07495 10.958 6.07495C13.1579 6.07495 14.9413 7.85836 14.9413 10.0583C14.9413 12.2582 13.1579 14.0416 10.958 14.0416ZM10.958 8.06658C9.85798 8.06658 8.96628 8.95828 8.96628 10.0583C8.96628 11.1582 9.85798 12.0499 10.958 12.0499C12.0579 12.0499 12.9496 11.1582 12.9496 10.0583C12.9496 8.95828 12.058 8.06658 10.958 8.06658Z" fill="#1E1E1E"/>
</svg>
