<svg width="20" height="20" viewBox="0 0 20 20" fill="none" xmlns="http://www.w3.org/2000/svg">
<path d="M19.0642 2.20226L19.0321 2.1822L14.9731 0.182465L10.592 6.02389L12.6076 8.71156C12.5473 9.72515 12.1175 10.6814 11.3995 11.3994C10.6815 12.1174 9.72521 12.5472 8.71162 12.6075L6.02399 10.5919L0.182617 14.9729L2.16571 18.998L2.1824 19.032L2.20251 19.064C2.30834 19.2346 2.45605 19.3752 2.63158 19.4724C2.80711 19.5697 3.00462 19.6205 3.20531 19.6198H4.25268C6.27075 19.6198 8.26906 19.2224 10.1335 18.4501C11.998 17.6778 13.692 16.5458 15.119 15.1188C16.546 13.6919 17.678 11.9978 18.4502 10.1333C19.2225 8.26886 19.62 6.27055 19.62 4.25248V3.20506C19.6206 3.00437 19.5699 2.80687 19.4726 2.63133C19.3753 2.4558 19.2348 2.30809 19.0642 2.20226ZM18.12 4.25248C18.12 11.899 11.8991 18.1198 4.25268 18.1198H3.40518L2.07834 15.4263L6.02427 12.4668L8.22116 14.1144H8.47115C9.96745 14.1127 11.402 13.5176 12.46 12.4596C13.5181 11.4015 14.1132 9.96697 14.1149 8.47067V8.22068L12.4673 6.02384L15.4264 2.07814L18.12 3.40521V4.25248Z" fill="#F7F7F7"/>
</svg>
