<svg width="93" height="68" viewBox="0 0 93 68" fill="none" xmlns="http://www.w3.org/2000/svg">
<path d="M16.4928 1.88281C12.7913 2.00626 9.28666 3.57923 6.7342 6.26264C4.18174 8.94605 2.78593 12.525 2.84767 16.2279C2.9094 19.9309 4.42373 23.4613 7.06422 26.0582C9.7047 28.655 13.2599 30.1103 16.9633 30.1103C20.6668 30.1103 24.222 28.655 26.8625 26.0582C29.503 23.4613 31.0173 19.9309 31.079 16.2279C31.1408 12.525 29.745 8.94605 27.1925 6.26264C24.64 3.57923 21.1353 2.00626 17.4339 1.88281H16.4928ZM36.2575 1.88281C32.556 2.00626 29.0514 3.57923 26.4989 6.26264C23.9464 8.94605 22.5506 12.525 22.6124 16.2279C22.6741 19.9309 24.1884 23.4613 26.8289 26.0582C29.4694 28.655 33.0246 30.1103 36.728 30.1103C40.4315 30.1103 43.9867 28.655 46.6272 26.0582C49.2677 23.4613 50.782 19.9309 50.8437 16.2279C50.9055 12.525 49.5096 8.94605 46.9572 6.26264C44.4047 3.57923 40.9 2.00626 37.1986 1.88281H36.2575ZM56.0222 1.88281C52.3207 2.00626 48.8161 3.57923 46.2636 6.26264C43.7111 8.94605 42.3153 12.525 42.3771 16.2279C42.4388 19.9309 43.9531 23.4613 46.5936 26.0582C49.2341 28.655 52.7893 30.1103 56.4927 30.1103C60.1962 30.1103 63.7514 28.655 66.3919 26.0582C69.0324 23.4613 70.5467 19.9309 70.6084 16.2279C70.6702 12.525 69.2743 8.94605 66.7219 6.26264C64.1694 3.57923 60.6647 2.00626 56.9633 1.88281H56.0222ZM75.7868 1.88281C72.0854 2.00626 68.5808 3.57923 66.0283 6.26264C63.4758 8.94605 62.08 12.525 62.1418 16.2279C62.2035 19.9309 63.7178 23.4613 66.3583 26.0582C68.9988 28.655 72.554 30.1103 76.2574 30.1103C79.9609 30.1103 83.5161 28.655 86.1566 26.0582C88.7971 23.4613 90.3114 19.9309 90.3731 16.2279C90.4348 12.525 89.039 8.94605 86.4866 6.26264C83.9341 3.57923 80.4294 2.00626 76.728 1.88281H75.7868Z" stroke="black" stroke-width="3"/>
<path d="M31.2922 62H29.1672L33.9094 50.8281H36.136L40.9797 62H38.7532L37.4797 58.9531H33.7688L34.4797 57.1562H36.7297L34.9719 52.9609L31.2922 62ZM49.6944 53.7969V62H48.0772L47.8272 60.9531C46.8845 61.651 45.8845 62 44.8272 62C43.1501 62 42.3116 61.0078 42.3116 59.0234V53.7969H44.3819V58.9688C44.3819 59.875 44.7777 60.3281 45.5694 60.3281C46.2413 60.3281 46.9262 60.0599 47.6241 59.5234V53.7969H49.6944ZM57.0107 55.9375C56.5836 55.6562 56.0471 55.5156 55.4013 55.5156C54.1148 55.5156 53.4716 56.237 53.4716 57.6797C53.4716 59.3932 54.1409 60.25 55.4794 60.25C56.0211 60.25 56.5315 60.1745 57.0107 60.0234V55.9375ZM59.081 61.5078C57.8258 61.8359 56.5992 62 55.4013 62C52.7502 62 51.4247 60.5781 51.4247 57.7344C51.4247 55.1094 52.7216 53.7969 55.3154 53.7969C55.8674 53.7969 56.4325 53.9271 57.0107 54.1875V50.8281H59.081V61.5078ZM63.2644 50.8281V52.4688H61.1941V50.8281H63.2644ZM63.2644 53.7969V62H61.1941V53.7969H63.2644Z" fill="#1E1E1E"/>
</svg>
