<svg width="41" height="76" viewBox="0 0 41 76" fill="none" xmlns="http://www.w3.org/2000/svg">
<path d="M20.1189 38.0681C10.1413 38.0681 2.05144 29.9782 2.05144 20.0007C2.05144 10.0232 10.1413 1.93328 20.1189 1.93328C30.0964 1.93328 38.1863 10.0232 38.1863 20.0007C38.1863 29.9782 30.0964 38.0681 20.1189 38.0681ZM20.1189 0.980469C9.61099 0.980469 1.09863 9.49283 1.09863 20.0007C1.09863 30.5086 9.61099 39.0209 20.1189 39.0209C30.6267 39.0209 39.1391 30.5086 39.1391 20.0007C39.1391 9.49283 30.6177 0.980469 20.1189 0.980469ZM20.1189 38.2209C22.5818 38.2209 24.9638 37.7355 27.211 36.7917C29.3773 35.8749 31.3278 34.5625 32.9998 32.8906C34.6717 31.2187 35.984 29.2681 36.9009 27.1018C37.8537 24.8546 38.3301 22.4726 38.3301 20.0097C38.3301 17.5468 37.8447 15.1647 36.9009 12.9175C35.984 10.7513 34.6717 8.80069 32.9998 7.12878C31.3278 5.45687 29.3773 4.14451 27.211 3.22766C24.9638 2.27485 22.5818 1.79845 20.1189 1.79845C17.6559 1.79845 15.2739 2.28384 13.0267 3.22766C10.8604 4.14451 8.90987 5.45687 7.23796 7.12878C5.56605 8.80069 4.25369 10.7513 3.33684 12.9175C2.38403 15.1647 1.90762 17.5468 1.90762 20.0097C1.90762 22.4726 2.39302 24.8546 3.33684 27.1018C4.25369 29.2681 5.56605 31.2187 7.23796 32.8906C8.90987 34.5625 10.8604 35.8749 13.0267 36.7917C15.2739 37.7355 17.6559 38.2209 20.1189 38.2209ZM20.1189 1.13328C22.6627 1.13328 25.1346 1.62766 27.4627 2.61642C29.7099 3.56923 31.7323 4.92654 33.4582 6.66137C35.193 8.3962 36.5503 10.4097 37.5031 12.6569C38.4829 14.985 38.9863 17.4569 38.9863 20.0007C38.9863 22.5445 38.4919 25.0164 37.5031 27.3445C36.5503 29.5917 35.193 31.6052 33.4582 33.34C31.7234 35.0749 29.7099 36.4322 27.4627 37.385C25.1346 38.3647 22.6627 38.8681 20.1189 38.8681C17.575 38.8681 15.1031 38.3737 12.775 37.385C10.5278 36.4322 8.50537 35.0749 6.77953 33.34C5.05369 31.6052 3.6874 29.5917 2.73459 27.3445C1.75481 25.0164 1.25144 22.5445 1.25144 20.0007C1.25144 17.4569 1.75481 14.985 2.73459 12.6569C3.6874 10.4097 5.0447 8.3962 6.77953 6.66137C8.51436 4.92654 10.5278 3.56923 12.775 2.61642C15.0941 1.62766 17.566 1.13328 20.1189 1.13328Z" fill="black"/>
<path d="M8.90946 8.37749C8.67575 8.17974 8.30721 8.17075 8.14541 8.36851L6.74316 10.0404L7.60609 10.7685L8.99036 9.11457C9.17013 8.89884 9.17013 8.59323 8.90946 8.37749ZM10.6083 10.3101C10.8061 10.0764 10.7701 9.71682 10.4915 9.48311C10.2398 9.27637 9.87125 9.3303 9.70946 9.52806L8.2353 11.2809L9.15215 12.0449L10.6083 10.3101Z" fill="black"/>
<path d="M20.1192 1.93164C10.1416 1.93164 2.05176 10.0215 2.05176 19.9991C2.05176 29.9766 10.1416 38.0665 20.1192 38.0665C30.0967 38.0665 38.1866 29.9766 38.1866 19.9991C38.1866 10.0215 30.0967 1.93164 20.1192 1.93164ZM17.3506 2.59681H18.7888L20.0922 6.00355L21.3866 2.59681H22.8248V7.36984H21.872V4.03501L20.6136 7.36984H19.5709L18.3124 4.03501V7.36984H17.3596L17.3506 2.59681ZM5.30569 10.453L7.63378 7.67546C8.11917 7.10018 8.79333 6.64175 9.43153 7.18108C9.62929 7.35187 9.71019 7.4058 9.95288 7.83726C10.0068 7.99007 10.0518 8.27771 9.94389 8.54737C10.5012 8.2058 11.0945 8.31366 11.481 8.69119C12.0742 9.26647 11.9843 9.93164 11.427 10.5968L8.97311 13.5271L5.30569 10.453ZM20.1192 32.1159C13.4315 32.1159 8.00232 26.6957 8.00232 19.9991C8.00232 13.3114 13.4225 7.8822 20.1192 7.8822C26.8068 7.8822 32.236 13.3024 32.236 19.9991C32.227 26.6867 26.8068 32.1159 20.1192 32.1159ZM31.3192 13.3564L30.5012 12.3676L32.0652 10.0125L32.0563 10.0036L29.4495 11.1182L28.6225 10.1384L31.3461 6.53389L32.0383 7.36984L30.3304 9.66198L32.9821 8.48445L33.7282 9.38333L32.0922 11.7653L34.654 10.5069L35.3461 11.3429L31.3192 13.3564Z" fill="black"/>
<path d="M8.7207 20.0001H20.1095V8.61133C13.8263 8.61133 8.7207 13.708 8.7207 20.0001ZM20.1185 20.0001V31.3889C26.4106 31.3889 31.5072 26.2922 31.5072 20.0001H20.1185Z" fill="black"/>
<path d="M1.6066 70V58.8281H6.84098C8.96598 58.8281 10.0285 59.6953 10.0285 61.4297C10.0285 62.7005 9.33577 63.6094 7.95035 64.1562C9.42952 64.4323 10.1691 65.2786 10.1691 66.6953C10.1691 68.8984 9.00504 70 6.67691 70H1.6066ZM6.59098 68.2031C7.50764 68.2031 7.96598 67.7344 7.96598 66.7969C7.96598 65.6354 7.28108 65.0547 5.91129 65.0547H5.28629V63.7188C7.00504 63.4323 7.86441 62.7135 7.86441 61.5625C7.86441 60.9375 7.479 60.625 6.70816 60.625H3.67691V68.2031H6.59098ZM12.0947 70V58.8281H14.2432L18.0322 67.3047L21.7432 58.8281H23.8135V70H21.8994V62.2188L18.8682 70H17.1025L14.0088 62.2188V70H12.0947ZM25.4188 58.8281H27.5204L28.7157 66.8516L31.6219 58.8281H33.6141L36.3329 66.5391L37.5985 58.8281H39.6375L37.536 70H35.5672L32.4969 61.2344L29.2 70H27.2547L25.4188 58.8281Z" fill="#1E1E1E"/>
</svg>
