<svg width="91" height="68" viewBox="0 0 91 68" fill="none" xmlns="http://www.w3.org/2000/svg">
<path d="M63.751 19.7126C63.7673 19.794 63.8651 19.8673 63.9711 19.908C64.0119 19.9243 64.0282 19.9487 63.9874 20.0301C63.6939 20.6571 63.4249 21.0154 63.0662 21.5528C62.732 22.0576 62.3489 22.4485 61.8924 22.823C61.1995 23.393 60.2375 24.02 59.4468 23.5966C59.0963 23.4174 58.9414 22.9207 58.9495 22.5218C58.9658 21.3981 59.4631 20.25 60.3924 19.1182C61.5174 17.734 62.7646 17.0174 63.5798 17.4083C64.4276 17.8072 64.1586 18.7843 63.7755 19.5579C63.7428 19.6067 63.7428 19.6637 63.751 19.7126ZM72.8159 10.9675C72.873 10.8617 72.8159 10.7803 72.6773 10.7803C71.9681 10.7803 71.0469 10.7803 70.3133 10.7803C70.1421 10.7803 70.0443 10.8047 69.9627 10.9675C69.6937 11.4887 66.3841 16.4393 65.7727 17.4001C65.6667 17.5467 65.5444 17.5223 65.5281 17.3594C65.4629 16.7894 64.9738 16.1299 64.1912 15.8205C63.5961 15.5843 63.0173 15.5355 62.4141 15.6169C61.3299 15.7635 60.3598 16.3335 59.5039 16.9849C58.224 17.962 57.1154 19.224 55.6806 20.1604C54.8981 20.6653 53.8302 21.1131 53.1128 20.4536C52.4688 19.851 52.5422 18.5238 53.5285 17.4897C53.6345 17.3838 53.7568 17.4734 53.7405 17.5711C53.6508 18.0352 53.7649 18.4994 54.1155 18.8251C54.5475 19.2159 55.1671 19.2566 55.6969 18.9961C56.3246 18.6866 56.6915 18.0922 56.7974 17.4164C56.9605 16.366 56.1534 15.4378 55.1426 15.3645C54.3193 15.3075 53.5285 15.5925 52.7623 16.2276C52.3791 16.5452 52.159 16.7813 51.8248 17.2536C51.7433 17.3676 51.621 17.3838 51.621 17.2128C51.6618 15.8693 51.0993 15.1121 49.9906 15.0877C49.1265 15.0632 48.2053 15.5355 47.4798 16.1055C46.6891 16.7406 46.0043 17.5793 45.2625 18.3691C45.1729 18.4668 45.0913 18.4586 45.0669 18.2714C45.0424 17.3838 44.8223 16.5126 44.4066 15.9019C44.2598 15.6902 43.9501 15.5843 43.6974 15.7309C43.5751 15.796 43.1593 15.9833 42.8577 16.2276C42.711 16.3497 42.6458 16.5289 42.7191 16.7569C43.1186 18.0922 43.0289 19.5986 42.4909 20.8851C41.9936 22.0576 41.0317 23.1162 39.8904 23.4663C39.1405 23.7024 38.366 23.5884 37.8851 22.9289C37.2248 22.0169 37.4938 20.4291 38.472 19.11C39.3443 17.9457 40.5996 17.2128 41.8469 16.7324C41.9936 16.6754 42.0262 16.5777 41.9855 16.4556C41.9203 16.252 41.8061 15.967 41.7654 15.8449C41.6512 15.5355 41.3252 15.4866 40.9339 15.5355C40.0209 15.6413 39.2057 15.9508 38.3905 16.3905C36.2628 17.5304 35.2031 19.7289 34.7303 20.9014C34.502 21.4632 34.3145 21.8215 34.0618 22.1309C33.7276 22.5543 33.3037 22.937 32.5374 23.6047C32.4641 23.6698 32.4152 23.792 32.4722 23.9141C32.5537 24.077 32.9532 24.6388 33.0673 24.6877C33.1896 24.7528 33.3363 24.6632 33.3934 24.6225C33.9314 24.2561 34.5754 23.678 34.8933 23.2871C35.0075 23.1569 35.1134 23.2057 35.1786 23.4093C35.4721 24.4597 36.2384 25.3146 37.3063 25.6729C39.2546 26.3324 41.2763 25.3798 42.8007 23.7268C43.7707 22.6765 44.1213 22.0006 44.4881 21.5365C45.1158 20.7548 46.363 19.0123 47.8385 17.8968C48.3847 17.4815 49.0205 17.1721 49.3466 17.3757C49.6075 17.5467 49.689 17.9294 49.2732 18.6866C47.7651 21.4388 45.5478 24.6714 45.1402 25.4531C45.0669 25.5915 45.1321 25.6973 45.2707 25.6973C46.0614 25.6973 46.844 25.6973 47.5614 25.6973C47.6836 25.6892 47.7325 25.6403 47.7978 25.5508C48.9553 23.7431 50.0477 22.0169 51.2134 20.2337C51.2786 20.1279 51.3357 20.2093 51.3438 20.2581C51.3683 20.6734 51.4661 21.2352 51.7188 21.6098C52.159 22.2938 52.7867 22.5869 53.4796 22.595C54.034 22.6032 54.3111 22.5136 54.9062 22.2938C55.3872 22.1146 55.7785 21.8785 56.0801 21.6668C56.2513 21.5447 56.2839 21.7482 56.2839 21.7808C56.0149 23.2139 56.3491 24.9238 57.7757 25.624C59.4876 26.4627 61.3625 25.2821 62.4467 24.2154C62.5527 24.1095 62.6668 24.1258 62.6749 24.3457C62.6994 24.7528 62.8787 25.2413 63.2211 25.5752C64.126 26.4871 65.9602 26.1207 67.7943 24.7039C68.9764 23.792 70.2073 22.5136 71.3159 21.1538C71.3567 21.105 71.3893 21.0154 71.3078 20.934C71.1366 20.7548 70.892 20.5513 70.7209 20.3966C70.6475 20.3314 70.5334 20.3477 70.4681 20.3966C69.3269 21.4795 68.2997 22.7172 66.8161 23.7431C66.3188 24.0933 65.52 24.3701 65.1613 23.8897C65.0227 23.7024 65.039 23.4419 65.1776 23.0999C65.6015 22.0006 72.4572 11.5782 72.8159 10.9675Z" fill="#0F0F0F"/>
<path d="M40.5607 12.2174C40.5933 12.3721 40.6504 12.4047 40.7238 12.3884C41.0743 12.3151 41.4574 12.0301 41.6775 11.6963C41.8813 11.395 41.9791 10.9635 41.7753 10.7843C41.596 10.6296 41.2944 10.6703 41.0743 10.8658C40.6341 11.2566 40.5037 11.8103 40.5607 12.2174ZM23.0831 25.6444C20.5234 25.6607 18.2735 24.081 18.0126 21.3533C17.8659 19.8388 18.2979 18.4871 19.1539 17.3797C19.912 16.3864 21.2 15.564 22.2923 15.3686C22.651 15.3034 23.1238 15.3441 23.3195 15.5803C23.6292 15.9385 23.5396 16.3375 23.2298 16.4922C22.3983 16.9156 21.3956 17.6403 20.9065 18.6337C20.5071 19.4398 20.4256 20.4169 21.0369 21.3451C22.0641 22.8922 24.9254 22.9329 27.5829 20.4658C28.2432 19.8632 28.8302 19.2769 29.4334 18.593C30.6073 17.2576 30.9986 16.7691 32.5556 14.6113C32.5719 14.5869 32.58 14.5543 32.5719 14.538C32.5556 14.5054 32.5393 14.5054 32.4903 14.4973C31.4469 14.5299 30.542 14.8393 29.6616 15.4907C29.4089 15.678 29.0421 15.6535 28.8791 15.4093C28.6997 15.1324 28.8302 14.7741 29.1236 14.5706C30.542 13.5853 32.0909 13.4062 33.6724 13.1375C33.6724 13.1375 33.7783 13.1457 33.8762 13.0235C34.5283 12.193 35.0174 11.4439 35.7103 10.5971C36.4114 9.74209 37.3081 8.96041 37.9929 8.36601C38.9548 7.54362 39.5662 7.26677 40.1939 6.92479C40.3569 6.83522 40.1694 6.73751 40.1205 6.73751C36.6234 6.07797 32.9876 5.23115 29.5231 6.51766C27.1183 7.41334 26.0667 9.31868 26.5721 10.5889C26.9308 11.4927 28.1209 11.6393 29.2377 11.0937C30.1589 10.6378 31.0149 9.91308 31.6262 8.9767C31.9686 8.45558 32.6778 8.83013 32.2947 9.73395C31.2757 12.1197 29.3356 14.0088 26.9715 14.0902C24.958 14.1553 23.6619 12.6734 23.6619 10.8495C23.67 7.25049 27.6807 4.88102 31.8953 4.53089C36.9739 4.11563 41.7754 5.45914 46.8132 6.06983C50.6772 6.53395 54.3782 6.55023 58.2585 5.65456C58.715 5.55685 59.041 5.84998 59.0084 6.3141C58.9677 6.98178 58.4541 7.62504 57.1743 8.3253C55.7232 9.12326 54.1988 9.35939 52.6092 9.37568C48.7697 9.40825 45.191 7.91003 41.49 7.11206C41.4982 7.27491 41.5389 7.47033 41.4004 7.56804C39.3461 9.08255 37.4956 10.6133 36.2565 12.7711C36.2158 12.82 36.2321 12.8688 36.3136 12.8607C37.3896 12.8037 38.3597 12.7792 39.3705 12.6978C39.5499 12.6815 39.5499 12.6408 39.5336 12.5105C39.4439 11.7696 39.664 10.9228 40.3162 10.3365C40.9846 9.73395 41.8243 9.66881 42.3786 10.1004C43.0063 10.5889 42.9574 11.4764 42.6068 12.136C42.2563 12.8118 41.6775 13.1701 41.115 13.3411C41.115 13.3411 41.0009 13.3655 41.0172 13.4714C41.0417 13.6423 41.7998 14.0658 41.865 14.1716C41.9302 14.2775 41.8976 14.4403 41.7835 14.5706C41.702 14.6602 41.5797 14.7497 41.4167 14.7497C41.2862 14.7497 41.2047 14.7009 41.0417 14.6113C40.6993 14.424 40.2754 14.1228 39.9901 13.7645C39.8923 13.6423 39.8434 13.6423 39.5988 13.6505C38.5064 13.7156 36.8108 13.8785 35.6614 14.0169C35.3843 14.0495 35.3435 14.1065 35.2864 14.196C33.4523 17.2169 31.4958 20.4739 29.3437 22.6561C27.0367 25.0093 25.121 25.6281 23.0831 25.6444Z" fill="#0F0F0F"/>
<path d="M45.3129 1.31908C21.4035 1.31908 2.02644 7.91451 2.02644 15.9919C2.02644 24.0692 21.4035 30.6646 45.3129 30.6646C69.2142 30.6646 88.5913 24.0692 88.5913 15.9919C88.5913 7.92265 69.2142 1.31908 45.3129 1.31908ZM45.3129 32C20.5394 32 0.453125 24.8346 0.453125 16C0.453125 7.15725 20.5394 0 45.3129 0C70.0865 0 90.1727 7.1654 90.1727 16C90.1727 24.8346 70.0865 32 45.3129 32Z" fill="#0F0F0F"/>
<path d="M37.1194 50.8281V52.6094H31.8381V55.4219H36.8538V57.2734H31.8147V62H29.7834V50.8281H37.1194ZM40.5216 57.8672C40.5216 59.5807 41.1856 60.4375 42.5138 60.4375C43.8419 60.4375 44.5059 59.5807 44.5059 57.8672C44.5059 56.1953 43.8419 55.3594 42.5138 55.3594C41.1856 55.3594 40.5216 56.1953 40.5216 57.8672ZM38.4513 57.8984C38.4513 55.1484 39.8054 53.7734 42.5138 53.7734C45.2221 53.7734 46.5763 55.1484 46.5763 57.8984C46.5763 60.6432 45.2221 62.0156 42.5138 62.0156C39.8158 62.0156 38.4617 60.6432 38.4513 57.8984ZM48.2987 62V53.7969H49.9003L50.1581 54.8438C50.8769 54.1458 51.6373 53.7969 52.4394 53.7969V55.4688C51.6685 55.4688 50.9784 55.7891 50.3691 56.4297V62H48.2987ZM58.9666 55.9375C58.5395 55.6562 58.003 55.5156 57.3572 55.5156C56.0707 55.5156 55.4275 56.237 55.4275 57.6797C55.4275 59.3932 56.0968 60.25 57.4353 60.25C57.977 60.25 58.4874 60.1745 58.9666 60.0234V55.9375ZM61.0369 61.5078C59.7817 61.8359 58.5551 62 57.3572 62C54.7061 62 53.3806 60.5781 53.3806 57.7344C53.3806 55.1094 54.6775 53.7969 57.2712 53.7969C57.8233 53.7969 58.3884 53.9271 58.9666 54.1875V50.8281H61.0369V61.5078Z" fill="#1E1E1E"/>
</svg>
