<svg width="71" height="72" viewBox="0 0 71 72" fill="none" xmlns="http://www.w3.org/2000/svg">
<g clip-path="url(#clip0_52_480)">
<path d="M35.3329 36C54.7417 36 70.4929 27.9148 70.4929 18C70.4929 8.08525 54.8007 0 35.3329 0C15.9241 0 0.172852 8.08525 0.172852 18C0.172852 27.9148 15.8651 36 35.3329 36ZM41.9401 27.1475C41.3502 28.5049 40.3473 31.3377 38.0466 32.577C37.3386 32.9311 36.5127 33.1082 35.6868 33.1082C35.5098 33.1082 35.3919 33.1082 35.3329 33.1082C29.3745 33.1672 23.4752 32.341 17.7529 30.6885L17.5759 30.6295C17.1039 30.4525 16.868 30.2754 16.868 29.9803C16.868 29.8623 16.927 29.7443 16.927 29.6852C16.9859 29.5672 17.0449 29.5082 17.1039 29.4492L17.3989 29.1541C18.5198 28.1508 22.0594 25.6131 28.7256 23.1344C31.4393 22.0131 34.212 21.1869 37.0437 20.4787C38.8725 20.0656 45.4797 19.0623 41.9401 27.1475ZM59.7561 9.02951C59.8151 8.91148 59.8741 8.79344 59.9921 8.73443C60.1101 8.67541 60.228 8.61639 60.346 8.61639C60.582 8.61639 60.877 8.67541 61.0539 8.85246C65.1835 11.3902 67.6612 14.577 67.6612 18C67.6612 24.1967 59.6971 29.5672 48.2524 31.8689C47.5445 32.0459 47.0135 31.9869 46.8955 31.8689C46.7186 31.7508 46.7186 31.5738 46.8955 31.3377C46.9545 31.1607 47.0725 31.0426 47.1905 30.9246C53.3848 23.6066 58.1633 12.8066 59.4611 9.67869C59.5791 9.38361 59.6381 9.14754 59.7561 9.02951ZM28.8436 8.79344C29.4335 7.43607 30.4364 4.54426 32.7372 3.36393C33.4451 3.00984 34.271 2.83279 35.0969 2.83279C35.2739 2.83279 35.3919 2.83279 35.4508 2.83279C41.4092 2.77377 47.3085 3.6 53.0308 5.25246L53.2078 5.31148C53.6798 5.48852 53.9157 5.66557 53.9157 5.96066C53.9157 6.07869 53.8568 6.19672 53.8568 6.25574C53.7978 6.37377 53.7388 6.43279 53.6798 6.4918L53.2668 6.8459C52.146 7.84918 48.6653 10.3869 41.9991 12.9246C39.2854 14.0459 36.5127 14.9311 33.681 15.5803C31.9702 15.9344 25.363 16.9377 28.8436 8.79344ZM22.4723 4.13115C23.2392 4.01311 23.7112 4.01311 23.8882 4.13115C23.9472 4.19016 23.9472 4.3082 23.9472 4.42623C23.9472 4.54426 23.8882 4.60328 23.8882 4.72131C23.7702 4.89836 23.7112 5.01639 23.5932 5.13443C17.3399 12.4525 12.5614 23.2525 11.2636 26.3803C11.1456 26.6164 11.0866 26.7934 10.9686 26.9705C10.9096 27.0885 10.8506 27.2066 10.7327 27.2656C10.6147 27.3246 10.4967 27.3836 10.3787 27.3836C10.1427 27.3836 9.84775 27.3246 9.67077 27.1475C5.54124 24.6098 3.06352 21.423 3.06352 18C3.06352 11.8033 11.0276 6.4918 22.4723 4.13115Z" fill="#0F0F0F"/>
</g>
<path d="M5.35301 66V54.8281H7.42332V59.4375H12.9311V54.8281H15.0014V66H12.9311V61.2344H7.42332V66H5.35301ZM16.3411 57.7969H18.5364L20.6068 63.7031L22.6302 57.7969H24.7864L21.3802 66.2422C20.776 67.7318 19.8099 68.7917 18.4818 69.4219L17.4818 68.0078C18.3984 67.6068 19.0651 66.9531 19.4818 66.0469L16.3411 57.7969ZM33.3136 57.7969V66H31.6964L31.4464 64.9531C30.5037 65.651 29.5037 66 28.4464 66C26.7694 66 25.9308 65.0078 25.9308 63.0234V57.7969H28.0011V62.9688C28.0011 63.875 28.397 64.3281 29.1886 64.3281C29.8605 64.3281 30.5454 64.0599 31.2433 63.5234V57.7969H33.3136ZM35.4346 66V57.7969H37.0361L37.2939 59C38.0804 58.1979 38.9762 57.7969 39.9814 57.7969C41.9242 57.7969 42.8955 58.8073 42.8955 60.8281V66H40.8252V60.8281C40.8252 59.9219 40.3747 59.4688 39.4736 59.4688C38.8018 59.4688 38.1455 59.737 37.5049 60.2734V66H35.4346ZM50.2118 59.9375C49.7847 59.6562 49.2482 59.5156 48.6024 59.5156C47.3159 59.5156 46.6727 60.237 46.6727 61.6797C46.6727 63.3932 47.342 64.25 48.6805 64.25C49.2222 64.25 49.7326 64.1745 50.2118 64.0234V59.9375ZM52.2821 65.5078C51.0269 65.8359 49.8003 66 48.6024 66C45.9513 66 44.6258 64.5781 44.6258 61.7344C44.6258 59.1094 45.9227 57.7969 48.5164 57.7969C49.0685 57.7969 49.6336 57.9271 50.2118 58.1875V54.8281H52.2821V65.5078ZM54.0046 63.4453C54.0046 61.8151 55.1921 61 57.5671 61C58.1244 61 58.6817 61.0521 59.2389 61.1562V60.5391C59.2389 59.8047 58.7103 59.4375 57.653 59.4375C56.7572 59.4375 55.7624 59.5677 54.6686 59.8281V58.1875C55.7624 57.9271 56.7572 57.7969 57.653 57.7969C60.0905 57.7969 61.3093 58.6979 61.3093 60.5V66H60.1061L59.3718 65.2656C58.6582 65.7552 57.8718 66 57.0124 66C55.0072 66 54.0046 65.1484 54.0046 63.4453ZM59.2389 62.5625C58.7181 62.4583 58.1608 62.4062 57.5671 62.4062C56.5723 62.4062 56.0749 62.7448 56.0749 63.4219C56.0749 64.151 56.4915 64.5156 57.3249 64.5156C58.0124 64.5156 58.6504 64.3021 59.2389 63.875V62.5625ZM65.5005 54.8281V56.4688H63.4302V54.8281H65.5005ZM65.5005 57.7969V66H63.4302V57.7969H65.5005Z" fill="#1E1E1E"/>
<defs>
<clipPath id="clip0_52_480">
<rect width="70.32" height="36" fill="white" transform="translate(0.172852)"/>
</clipPath>
</defs>
</svg>
