<svg width="103" height="60" viewBox="0 0 103 60" fill="none" xmlns="http://www.w3.org/2000/svg">
<g clip-path="url(#clip0_52_518)">
<path d="M59.5668 21.2863C59.5668 21.4802 59.6193 21.5859 59.7419 21.5859C59.8295 21.5859 59.8995 21.5507 59.9871 21.4978L91.5776 0.828194C92.138 0.45815 92.6458 0.264317 93.3988 0.264317H100.351C101.419 0.264317 102.137 0.986784 102.137 2.06167V15.4009C102.137 17.0044 101.787 17.9383 100.351 18.8018L91.9278 23.8943C91.8228 23.9648 91.7177 24 91.6477 24C91.5426 24 91.455 23.9295 91.455 23.63V8.05286C91.455 7.87665 91.4025 7.7533 91.2799 7.7533C91.1924 7.7533 91.1223 7.78855 91.0348 7.84141L67.9372 22.9427C67.2893 23.3656 66.764 23.489 66.1686 23.489H50.8461C49.7779 23.489 49.06 22.7665 49.06 21.6916V2.48458C49.06 2.34361 48.9899 2.22026 48.8848 2.22026C48.7973 2.22026 48.7272 2.25551 48.6397 2.30837L33.4048 11.5242C33.2472 11.6123 33.2121 11.7004 33.2121 11.7709C33.2121 11.8414 33.2297 11.8943 33.3522 12L44.2268 22.9427C44.3669 23.0837 44.472 23.2071 44.472 23.3128C44.472 23.4361 44.3144 23.5066 44.1217 23.5066H34.2803C33.5098 23.5066 32.9144 23.3833 32.4942 22.9604L25.8924 16.3172C25.8223 16.2467 25.7698 16.2115 25.6998 16.2115C25.6472 16.2115 25.5597 16.2467 25.4896 16.2819L14.4574 22.9604C13.792 23.3656 13.3367 23.489 12.6713 23.489H2.51468C1.44648 23.489 0.728516 22.7665 0.728516 21.6916V8.59912C0.728516 6.97797 1.07874 6.06167 2.51468 5.19824L10.9902 0.0704846C11.0777 0.0176211 11.1478 0 11.2178 0C11.3404 0 11.4105 0.140969 11.4105 0.422908V17.9383C11.4105 18.1145 11.463 18.2026 11.5856 18.2026C11.6556 18.2026 11.7432 18.1498 11.8307 18.0969L40.4619 0.77533C41.1448 0.370044 41.5651 0.246696 42.3531 0.246696H57.7631C58.8313 0.246696 59.5493 0.969163 59.5493 2.04405L59.5668 21.2863Z" fill="#05141F"/>
</g>
<path d="M40.5929 42.8281V54H38.5226V42.8281H40.5929ZM48.4523 42.8281L43.6867 48.0391L48.9523 54H46.0851L41.7648 48.7812V47.4375L45.9211 42.8281H48.4523ZM51.9717 42.8281V54H49.9014V42.8281H51.9717ZM55.6317 54H53.5067L58.2489 42.8281H60.4754L65.3192 54H63.0926L61.8192 50.9531H58.1082L58.8192 49.1562H61.0692L59.3114 44.9609L55.6317 54Z" fill="#1E1E1E"/>
<defs>
<clipPath id="clip0_52_518">
<rect width="101.408" height="24" fill="white" transform="translate(0.728516)"/>
</clipPath>
</defs>
</svg>
