<svg width="115" height="76" viewBox="0 0 115 76" fill="none" xmlns="http://www.w3.org/2000/svg">
<g clip-path="url(#clip0_52_469)">
<path d="M57.5803 19.9009L58.4517 19.3669L69.5831 26.9846L57.5803 19.9009ZM56.9338 19.4793L56.1186 19.0014L57.0462 4.46875L56.9338 19.4793ZM55.9499 19.4231L52.2676 22.487L56.6808 19.8728L55.9499 19.4231Z" fill="black"/>
<path d="M57.1589 0.167969C46.1961 0.167969 37.3135 9.05061 37.3135 20.0134C37.3135 30.9761 46.1961 39.8588 57.1589 39.8588C68.1216 39.8588 77.0043 30.9761 77.0043 20.0134C77.0043 9.05061 68.1216 0.167969 57.1589 0.167969ZM57.1589 38.7625C52.6332 38.7625 48.3887 37.2446 45.2123 34.4898C42.1483 31.7913 39.759 27.4905 39.1687 22.9368C40.5742 31.6226 48.0795 38.2284 57.1589 38.2284C67.2221 38.2284 75.3739 30.0766 75.3739 20.0134C75.3739 15.825 73.8279 11.7491 71.4386 8.68519C73.8279 10.5404 75.908 15.7969 75.908 20.0134C75.9361 30.3858 67.5313 38.7625 57.1589 38.7625ZM55.4442 18.5798L57.0464 2.13564H57.187L57.3556 19.4512L60.1104 17.7927L57.3556 2.13564C67.1378 2.21997 75.0366 10.2031 75.0366 19.9853C75.0366 23.1335 74.2214 26.085 72.7878 28.6711L60.3915 18.2987L59.2109 18.9733L72.7035 28.8398C72.6754 28.896 72.6473 28.9522 72.5911 29.0084L57.4119 20.2664V23.3303L72.4786 29.149C69.3585 34.3493 63.6522 37.8349 57.1589 37.8349C50.6655 37.8349 44.9593 34.3493 41.8391 29.1771L56.9059 23.3303V20.2382L41.7267 28.9522C41.6986 28.896 41.6705 28.8398 41.6142 28.7836L55.0507 18.9452L53.87 18.2706L41.5018 28.5868C40.0963 26.0288 39.2812 23.1054 39.2812 19.9571C39.2812 10.2312 47.0675 2.33241 56.7372 2.10753L54.3198 17.9333L55.4442 18.5798ZM57.1589 1.23613C46.8145 1.23613 38.4098 9.64091 38.4098 19.9853C38.4098 24.2017 39.9277 28.1652 42.2608 31.6226C43.0478 33.1125 43.8911 34.012 45.0436 35.2207C40.5742 31.6508 37.6789 26.1413 37.6789 19.9853C37.6789 9.21927 46.3929 0.505284 57.1589 0.505284C67.9249 0.505284 76.8075 9.6128 76.4702 19.9853C76.2172 9.86579 67.3627 1.23613 57.1589 1.23613Z" fill="black"/>
</g>
<path d="M1.39254 70V58.8281H3.54098L7.33004 67.3047L11.041 58.8281H13.1113V70H11.1972V62.2188L8.16598 70H6.40035L3.3066 62.2188V70H1.39254ZM18.8807 61.7969C21.3702 61.7969 22.615 63.0677 22.615 65.6094C22.615 65.9479 22.5916 66.2865 22.5447 66.625H17.0994C17.0994 67.7812 17.9484 68.3594 19.6463 68.3594C20.4744 68.3594 21.3025 68.2812 22.1307 68.125V69.7656C21.4067 69.9219 20.5265 70 19.49 70C16.5161 70 15.0291 68.6016 15.0291 65.8047C15.0291 63.1328 16.313 61.7969 18.8807 61.7969ZM17.0994 65.1875H20.5994V65.125C20.5994 63.9896 20.0265 63.4219 18.8807 63.4219C17.7869 63.4219 17.1932 64.0104 17.0994 65.1875ZM24.3297 70V61.7969H25.9313L26.1891 62.8438C26.9079 62.1458 27.6683 61.7969 28.4704 61.7969V63.4688C27.6995 63.4688 27.0094 63.7891 26.4 64.4297V70H24.3297ZM35.8569 69.7656C35.1798 69.9219 34.4767 70 33.7475 70C30.8309 70 29.3725 68.5807 29.3725 65.7422C29.3725 63.112 30.8309 61.7969 33.7475 61.7969C34.4767 61.7969 35.1798 61.875 35.8569 62.0312V63.6719C35.1798 63.5156 34.5288 63.4375 33.9038 63.4375C32.2632 63.4375 31.4429 64.2057 31.4429 65.7422C31.4429 67.487 32.2632 68.3594 33.9038 68.3594C34.5288 68.3594 35.1798 68.2812 35.8569 68.125V69.7656ZM40.845 61.7969C43.3346 61.7969 44.5794 63.0677 44.5794 65.6094C44.5794 65.9479 44.556 66.2865 44.5091 66.625H39.0638C39.0638 67.7812 39.9127 68.3594 41.6107 68.3594C42.4388 68.3594 43.2669 68.2812 44.095 68.125V69.7656C43.3711 69.9219 42.4909 70 41.4544 70C38.4805 70 36.9935 68.6016 36.9935 65.8047C36.9935 63.1328 38.2773 61.7969 40.845 61.7969ZM39.0638 65.1875H42.5638V65.125C42.5638 63.9896 41.9909 63.4219 40.845 63.4219C39.7513 63.4219 39.1575 64.0104 39.0638 65.1875ZM51.4894 63.9375C51.0623 63.6562 50.5259 63.5156 49.88 63.5156C48.5936 63.5156 47.9504 64.237 47.9504 65.6797C47.9504 67.3932 48.6196 68.25 49.9582 68.25C50.4998 68.25 51.0102 68.1745 51.4894 68.0234V63.9375ZM53.5597 69.5078C52.3045 69.8359 51.078 70 49.88 70C47.229 70 45.9035 68.5781 45.9035 65.7344C45.9035 63.1094 47.2004 61.7969 49.7941 61.7969C50.3462 61.7969 50.9113 61.9271 51.4894 62.1875V58.8281H53.5597V69.5078ZM59.1338 61.7969C61.6234 61.7969 62.8682 63.0677 62.8682 65.6094C62.8682 65.9479 62.8447 66.2865 62.7979 66.625H57.3525C57.3525 67.7812 58.2015 68.3594 59.8994 68.3594C60.7275 68.3594 61.5557 68.2812 62.3838 68.125V69.7656C61.6598 69.9219 60.7796 70 59.7432 70C56.7692 70 55.2822 68.6016 55.2822 65.8047C55.2822 63.1328 56.5661 61.7969 59.1338 61.7969ZM57.3525 65.1875H60.8525V65.125C60.8525 63.9896 60.2796 63.4219 59.1338 63.4219C58.04 63.4219 57.4463 64.0104 57.3525 65.1875ZM64.5829 69.6094V67.8906C65.4943 68.2552 66.5464 68.4375 67.7391 68.4375C68.6297 68.4375 69.075 68.151 69.075 67.5781C69.075 67.0312 68.7756 66.7578 68.1766 66.7578H66.6922C65.0256 66.7578 64.1922 65.9375 64.1922 64.2969C64.1922 62.5781 65.4084 61.7188 67.8407 61.7188C68.8719 61.7188 69.8433 61.875 70.7547 62.1875V63.9062C69.8433 63.5417 68.8537 63.3594 67.786 63.3594C66.6662 63.3594 66.1063 63.6458 66.1063 64.2188C66.1063 64.7656 66.4318 65.0391 67.0829 65.0391H68.411C70.2339 65.0391 71.1454 65.8594 71.1454 67.5C71.1454 69.2188 69.9839 70.0781 67.661 70.0781C66.5204 70.0781 65.4943 69.9219 64.5829 69.6094ZM76.4694 65.0781V66.7188H72.5632V65.0781H76.4694ZM78.5825 70V58.8281H83.8169C85.9419 58.8281 87.0044 59.6953 87.0044 61.4297C87.0044 62.7005 86.3117 63.6094 84.9263 64.1562C86.4055 64.4323 87.145 65.2786 87.145 66.6953C87.145 68.8984 85.981 70 83.6529 70H78.5825ZM83.5669 68.2031C84.4836 68.2031 84.9419 67.7344 84.9419 66.7969C84.9419 65.6354 84.257 65.0547 82.8872 65.0547H82.2622V63.7188C83.981 63.4323 84.8404 62.7135 84.8404 61.5625C84.8404 60.9375 84.4549 60.625 83.6841 60.625H80.6529V68.2031H83.5669ZM92.3363 61.7969C94.8259 61.7969 96.0707 63.0677 96.0707 65.6094C96.0707 65.9479 96.0472 66.2865 96.0004 66.625H90.555C90.555 67.7812 91.404 68.3594 93.1019 68.3594C93.93 68.3594 94.7582 68.2812 95.5863 68.125V69.7656C94.8623 69.9219 93.9821 70 92.9457 70C89.9717 70 88.4847 68.6016 88.4847 65.8047C88.4847 63.1328 89.7686 61.7969 92.3363 61.7969ZM90.555 65.1875H94.055V65.125C94.055 63.9896 93.4821 63.4219 92.3363 63.4219C91.2425 63.4219 90.6488 64.0104 90.555 65.1875ZM97.7854 70V61.7969H99.3869L99.6447 63C100.431 62.1979 101.327 61.7969 102.332 61.7969C104.275 61.7969 105.246 62.8073 105.246 64.8281V70H103.176V64.8281C103.176 63.9219 102.725 63.4688 101.824 63.4688C101.153 63.4688 100.496 63.737 99.8557 64.2734V70H97.7854ZM107.328 61.7969H113.656V63.4375L109.461 68.4375H113.5V70H107.172V68.4375L111.43 63.4375H107.328V61.7969Z" fill="#1E1E1E"/>
<defs>
<clipPath id="clip0_52_469">
<rect width="40" height="40" fill="white" transform="translate(37.1729)"/>
</clipPath>
</defs>
</svg>
