<svg width="41" height="76" viewBox="0 0 41 76" fill="none" xmlns="http://www.w3.org/2000/svg">
<g clip-path="url(#clip0_52_462)">
<path d="M20.2634 39.9215L25.8779 8.4422C31.2236 8.4422 32.9159 9.02603 33.1531 11.4087C33.1531 11.4087 36.7433 10.0674 38.5463 7.36922C31.4925 4.10295 24.3913 3.96094 24.3913 3.96094L20.2476 8.99447H20.2634L16.1355 3.96094C16.1355 3.96094 9.03425 4.10295 1.98047 7.36922C3.78345 10.0832 7.37361 11.4087 7.37361 11.4087C7.61084 9.02603 9.30312 8.4422 14.6172 8.42642L20.2634 39.9215Z" fill="black"/>
<path d="M20.2632 2.51006C25.9727 2.46272 32.5046 3.39369 39.1946 6.29704C40.0961 4.68757 40.3175 3.97751 40.3175 3.97751C33.0107 1.08994 26.1625 0.111636 20.2632 0.0800781C14.3798 0.111636 7.53163 1.08994 0.208984 3.97751C0.208984 3.97751 0.541114 4.84536 1.3319 6.29704C8.02192 3.37791 14.5538 2.46272 20.2632 2.51006Z" fill="black"/>
</g>
<path d="M9.34895 58.8281V60.625H6.14582V70H4.07551V60.625H0.872383V58.8281H9.34895ZM13.9543 61.7969C16.4438 61.7969 17.6886 63.0677 17.6886 65.6094C17.6886 65.9479 17.6652 66.2865 17.6183 66.625H12.173C12.173 67.7812 13.022 68.3594 14.7199 68.3594C15.548 68.3594 16.3761 68.2812 17.2043 68.125V69.7656C16.4803 69.9219 15.6001 70 14.5636 70C11.5897 70 10.1027 68.6016 10.1027 65.8047C10.1027 63.1328 11.3865 61.7969 13.9543 61.7969ZM12.173 65.1875H15.673V65.125C15.673 63.9896 15.1001 63.4219 13.9543 63.4219C12.8605 63.4219 12.2668 64.0104 12.173 65.1875ZM19.4033 69.6094V67.8906C20.3148 68.2552 21.3669 68.4375 22.5596 68.4375C23.4502 68.4375 23.8955 68.151 23.8955 67.5781C23.8955 67.0312 23.596 66.7578 22.9971 66.7578H21.5127C19.846 66.7578 19.0127 65.9375 19.0127 64.2969C19.0127 62.5781 20.2288 61.7188 22.6611 61.7188C23.6924 61.7188 24.6637 61.875 25.5752 62.1875V63.9062C24.6637 63.5417 23.6742 63.3594 22.6064 63.3594C21.4867 63.3594 20.9268 63.6458 20.9268 64.2188C20.9268 64.7656 21.2523 65.0391 21.9033 65.0391H23.2314C25.0544 65.0391 25.9658 65.8594 25.9658 67.5C25.9658 69.2188 24.8044 70.0781 22.4814 70.0781C21.3408 70.0781 20.3148 69.9219 19.4033 69.6094ZM29.6493 58.8281V70H27.5789V58.8281H29.6493ZM31.3796 67.4453C31.3796 65.8151 32.5671 65 34.9421 65C35.4994 65 36.0567 65.0521 36.6139 65.1562V64.5391C36.6139 63.8047 36.0853 63.4375 35.028 63.4375C34.1322 63.4375 33.1374 63.5677 32.0436 63.8281V62.1875C33.1374 61.9271 34.1322 61.7969 35.028 61.7969C37.4655 61.7969 38.6843 62.6979 38.6843 64.5V70H37.4811L36.7468 69.2656C36.0332 69.7552 35.2468 70 34.3874 70C32.3822 70 31.3796 69.1484 31.3796 67.4453ZM36.6139 66.5625C36.0931 66.4583 35.5358 66.4062 34.9421 66.4062C33.9473 66.4062 33.4499 66.7448 33.4499 67.4219C33.4499 68.151 33.8665 68.5156 34.6999 68.5156C35.3874 68.5156 36.0254 68.3021 36.6139 67.875V66.5625Z" fill="#1E1E1E"/>
<defs>
<clipPath id="clip0_52_462">
<rect width="40.2667" height="40" fill="white" transform="translate(0.136719)"/>
</clipPath>
</defs>
</svg>
