<svg width="56" height="72" viewBox="0 0 56 72" fill="none" xmlns="http://www.w3.org/2000/svg">
<path d="M40.2665 1.76931C36.8602 0.649949 32.6377 0 28.0604 0C23.4831 0 19.2607 0.649949 15.8543 1.76931C6.80618 4.73019 0.59668 10.8686 0.59668 17.9458C0.59668 27.9117 12.8738 36 28.025 36C43.1761 36 55.4532 27.9117 55.4532 17.9458C55.5242 10.8686 49.3147 4.73019 40.2665 1.76931ZM28.0604 28.2728C25.7895 28.2728 23.9444 23.7593 23.838 18.0542C25.1863 18.1625 26.6056 18.2347 28.0604 18.2347C29.5152 18.2347 30.8991 18.1625 32.2829 18.0542C32.1764 23.7232 30.3313 28.2728 28.0604 28.2728ZM24.1218 13.5767C24.725 9.56871 26.2508 6.75226 28.0604 6.75226C29.8346 6.75226 31.3603 9.56871 31.999 13.5767C30.7571 13.6851 29.4088 13.7573 28.0604 13.7573C26.7121 13.7573 25.3992 13.7212 24.1218 13.5767ZM34.4119 13.2879C33.4893 7.00501 31.0055 2.52758 28.0604 2.52758C25.1154 2.52758 22.6315 7.00501 21.709 13.2879C16.1382 12.3852 12.2351 10.3992 12.2351 8.05215C12.2351 4.87462 19.2962 2.31093 28.025 2.31093C36.7537 2.31093 43.8148 4.87462 43.8148 8.05215C43.8858 10.3992 39.9827 12.4213 34.4119 13.2879ZM4.64173 17.2959C4.64173 14.2267 5.81266 11.3741 7.79971 8.91875C7.76422 9.0993 7.76422 9.27984 7.76422 9.42427C7.76422 13.2879 13.4415 16.5376 21.3542 17.7292C21.3542 18.0181 21.3542 18.3069 21.3542 18.5958C21.3542 25.7452 23.3057 31.8114 26.0024 33.9057C14.0092 33.1836 4.64173 26.0341 4.64173 17.2959ZM30.1539 33.9057C32.8506 31.8114 34.8022 25.7452 34.8022 18.5958C34.8022 18.3069 34.8022 18.0181 34.8022 17.7292C42.7149 16.5376 48.3921 13.2518 48.3921 9.42427C48.3921 9.24373 48.3921 9.06319 48.3566 8.91875C50.3792 11.3741 51.5146 14.2628 51.5146 17.2959C51.5146 26.0341 42.1117 33.1836 30.1539 33.9057Z" fill="#0F0F0F"/>
<path d="M11.2973 54.8281V56.625H8.09414V66H6.02383V56.625H2.8207V54.8281H11.2973ZM14.1213 61.8672C14.1213 63.5807 14.7854 64.4375 16.1135 64.4375C17.4416 64.4375 18.1057 63.5807 18.1057 61.8672C18.1057 60.1953 17.4416 59.3594 16.1135 59.3594C14.7854 59.3594 14.1213 60.1953 14.1213 61.8672ZM12.051 61.8984C12.051 59.1484 13.4052 57.7734 16.1135 57.7734C18.8218 57.7734 20.176 59.1484 20.176 61.8984C20.176 64.6432 18.8218 66.0156 16.1135 66.0156C13.4156 66.0156 12.0614 64.6432 12.051 61.8984ZM20.922 57.7969H23.1173L25.1876 63.7031L27.211 57.7969H29.3673L25.961 66.2422C25.3568 67.7318 24.3907 68.7917 23.0626 69.4219L22.0626 68.0078C22.9792 67.6068 23.6459 66.9531 24.0626 66.0469L20.922 57.7969ZM32.1913 61.8672C32.1913 63.5807 32.8554 64.4375 34.1835 64.4375C35.5116 64.4375 36.1757 63.5807 36.1757 61.8672C36.1757 60.1953 35.5116 59.3594 34.1835 59.3594C32.8554 59.3594 32.1913 60.1953 32.1913 61.8672ZM30.121 61.8984C30.121 59.1484 31.4752 57.7734 34.1835 57.7734C36.8918 57.7734 38.246 59.1484 38.246 61.8984C38.246 64.6432 36.8918 66.0156 34.1835 66.0156C31.4856 66.0156 30.1314 64.6432 30.121 61.8984ZM39.8513 56.4688H41.3826L41.6951 57.7969H43.7576V59.4375H41.9216V63.2109C41.9216 63.9766 42.2524 64.3594 42.9138 64.3594H43.7576V66H41.9138C40.5388 66 39.8513 65.263 39.8513 63.7891V56.4688ZM44.941 63.4453C44.941 61.8151 46.1285 61 48.5035 61C49.0608 61 49.6181 61.0521 50.1754 61.1562V60.5391C50.1754 59.8047 49.6467 59.4375 48.5895 59.4375C47.6936 59.4375 46.6988 59.5677 45.6051 59.8281V58.1875C46.6988 57.9271 47.6936 57.7969 48.5895 57.7969C51.027 57.7969 52.2457 58.6979 52.2457 60.5V66H51.0426L50.3082 65.2656C49.5947 65.7552 48.8082 66 47.9488 66C45.9436 66 44.941 65.1484 44.941 63.4453ZM50.1754 62.5625C49.6546 62.4583 49.0973 62.4062 48.5035 62.4062C47.5087 62.4062 47.0113 62.7448 47.0113 63.4219C47.0113 64.151 47.428 64.5156 48.2613 64.5156C48.9488 64.5156 49.5869 64.3021 50.1754 63.875V62.5625Z" fill="#1E1E1E"/>
</svg>
