<svg width="40" height="40" viewBox="0 0 40 40" fill="none" xmlns="http://www.w3.org/2000/svg">
<rect width="40" height="40" rx="4" fill="#1E1E1E"/>
<path d="M24.8695 30C26.6265 30 27.8213 29.497 28.9056 28.3199C28.9759 28.2395 29.0462 28.1489 29.1165 28.0684C29.7088 27.4045 30 26.7103 30 26.0664C30 25.3119 29.5984 24.6278 28.7048 24.0142L25.7129 21.9216C24.7691 21.2677 23.6747 21.2174 22.8313 22.0625L22.0884 22.8069C21.8273 23.0685 21.5763 23.0886 21.2751 22.8774C20.7329 22.5152 19.7088 21.6098 19.006 20.9055C18.2932 20.1913 17.5703 19.3865 17.1787 18.7728C16.9679 18.4609 16.988 18.2195 17.249 17.9579L17.992 17.2134C18.8353 16.3684 18.7851 15.2718 18.1225 14.3262L15.994 11.2779C15.4016 10.4127 14.6888 10.0103 13.9357 10.0003C13.2932 9.99019 12.6104 10.2819 11.9478 10.8654C11.8675 10.9359 11.7871 11.0063 11.7068 11.0767C10.512 12.1733 10 13.3503 10 15.1813C10 18.149 11.7169 21.65 15.0602 24.9799C18.3835 28.2898 21.8373 30 24.8695 30ZM24.8695 28.3199C22.3092 28.3602 19.1265 26.5393 16.3353 23.7627C13.5241 20.986 11.6566 17.6762 11.6968 15.1109C11.7169 14.0344 12.0984 13.0887 12.8514 12.4248C12.9317 12.3644 12.992 12.3141 13.0723 12.2537C13.3534 12.0123 13.6546 11.8815 13.9357 11.8815C14.2269 11.8815 14.488 12.0022 14.6888 12.304L16.5663 15.131C16.8072 15.473 16.8173 15.8654 16.4659 16.2074L15.6627 17.0022C14.8996 17.7466 14.9699 18.6219 15.4518 19.306C15.994 20.0605 17.008 21.2174 17.8614 22.0625C18.7751 22.9679 20.0201 24.0846 20.743 24.6077C21.4257 25.0906 22.2992 25.161 23.0422 24.3964L23.8353 23.5916C24.1667 23.2395 24.5582 23.2496 24.9096 23.481L27.6807 25.3321C27.992 25.5333 28.1024 25.7848 28.1024 26.0765C28.1024 26.3582 27.9719 26.66 27.7309 26.9517C27.6707 27.0222 27.6205 27.0825 27.5602 27.163C26.8976 27.9276 25.9538 28.3099 24.8695 28.3199Z" fill="#F3EFEF"/>
</svg>
