<svg width="24" height="24" viewBox="0 0 24 24" fill="none" xmlns="http://www.w3.org/2000/svg">
<rect x="0.5" y="0.5" width="23" height="23" rx="3.5" fill="#E34040"/>
<rect x="0.5" y="0.5" width="23" height="23" rx="3.5" stroke="#E34040"/>
<g clip-path="url(#clip0_55_490)">
<path d="M9.16613 17.7751C8.71195 17.7753 8.27638 17.5948 7.9555 17.2734L4.29537 13.6146C3.90154 13.2207 3.90154 12.5821 4.29537 12.1881C4.68933 11.7943 5.32794 11.7943 5.72189 12.1881L9.16613 15.6323L18.2781 6.52035C18.6721 6.12652 19.3107 6.12652 19.7046 6.52035C20.0985 6.91431 20.0985 7.55291 19.7046 7.94687L10.3768 17.2734C10.0559 17.5948 9.6203 17.7753 9.16613 17.7751Z" fill="#F7F7F7"/>
</g>
<defs>
<clipPath id="clip0_55_490">
<rect width="16" height="16" fill="white" transform="translate(4 4)"/>
</clipPath>
</defs>
</svg>
